<?xml version="1.0" encoding="UTF-8" standalone="no"?>
<!-- Created with Inkscape (http://www.inkscape.org/) -->

<svg
   version="1.0"
   width="480"
   height="460"
   id="svg2"
   sodipodi:docname="Petersen_graph_3-coloring.svg"
   inkscape:version="1.2 (1:1.2.1+202207142221+cd75a1ee6d)"
   xmlns:inkscape="http://www.inkscape.org/namespaces/inkscape"
   xmlns:sodipodi="http://sodipodi.sourceforge.net/DTD/sodipodi-0.dtd"
   xmlns="http://www.w3.org/2000/svg"
   xmlns:svg="http://www.w3.org/2000/svg">
  <sodipodi:namedview
     id="namedview84"
     pagecolor="#ffffff"
     bordercolor="#666666"
     borderopacity="1.0"
     inkscape:showpageshadow="2"
     inkscape:pageopacity="0.0"
     inkscape:pagecheckerboard="true"
     inkscape:deskcolor="#d1d1d1"
     showgrid="false"
     inkscape:zoom="1.6478261"
     inkscape:cx="212.70449"
     inkscape:cy="230"
     inkscape:window-width="3840"
     inkscape:window-height="2103"
     inkscape:window-x="0"
     inkscape:window-y="28"
     inkscape:window-maximized="1"
     inkscape:current-layer="svg2" />
  <defs
     id="defs5" />
  <g
     transform="translate(0,2)"
     id="g2379"
     style="stroke:#ffffff;stroke-opacity:1">
    <g
       transform="translate(194.5,117)"
       id="g2851"
       style="stroke:#ffffff;stroke-opacity:1">
      <g
         id="g2829"
         style="stroke:#ffffff;stroke-opacity:1">
        <path
           d="M 186.5,331.00001 L 44.969333,-101.22844 L -96.730123,330.83282 L 270.60817,62.663215 L -184.09404,61.413294 L 186.5,331.00001 z "
           transform="matrix(0.505168,0,0,0.504895,22.28918,53.96428)"
           style="fill:none;fill-opacity:1;stroke:#ffffff;stroke-width:9.90038109;stroke-linecap:square;stroke-linejoin:miter;stroke-miterlimit:4;stroke-opacity:1"
           id="path2807" />
        <path
           d="M 186.5,331.00001 L -96.730123,330.83282 L -184.09404,61.413294 L 45.142222,-104.92994 L 274.18193,61.683817 L 186.5,331.00001 z "
           transform="matrix(0.919765,0,0,0.919721,3.614079,7.074313)"
           style="opacity:1;fill:none;fill-opacity:1;stroke:#ffffff;stroke-width:5.43629885;stroke-linecap:square;stroke-linejoin:miter;stroke-miterlimit:4;stroke-dasharray:none;stroke-opacity:1"
           id="path2805" />
        <g
           id="g2822"
           style="stroke:#ffffff;stroke-opacity:1">
          <path
             d="M -163,67 L -69,88"
             transform="translate(0,-2)"
             style="fill:none;fill-opacity:0.75;fill-rule:evenodd;stroke:#ffffff;stroke-width:5;stroke-linecap:butt;stroke-linejoin:miter;stroke-miterlimit:4;stroke-dasharray:none;stroke-opacity:1"
             id="path2812" />
          <path
             d="M 251,65 L 157,86"
             style="fill:none;fill-opacity:0.75;fill-rule:evenodd;stroke:#ffffff;stroke-width:5;stroke-linecap:butt;stroke-linejoin:miter;stroke-miterlimit:4;stroke-dasharray:none;stroke-opacity:1"
             id="path2814" />
          <path
             d="M 45,-85 L 45,9"
             transform="translate(0,-2)"
             style="fill:none;fill-opacity:0.75;fill-rule:evenodd;stroke:#ffffff;stroke-width:5;stroke-linecap:butt;stroke-linejoin:miter;stroke-miterlimit:4;stroke-dasharray:none;stroke-opacity:1"
             id="path2816" />
          <path
             d="M -25,221 L -86,311"
             transform="translate(0,-2)"
             style="fill:none;fill-opacity:0.75;fill-rule:evenodd;stroke:#ffffff;stroke-width:5;stroke-linecap:butt;stroke-linejoin:miter;stroke-miterlimit:4;stroke-dasharray:none;stroke-opacity:1"
             id="path2818" />
          <path
             d="M 114,219 L 175,309"
             style="fill:none;fill-opacity:0.75;fill-rule:evenodd;stroke:#ffffff;stroke-width:5;stroke-linecap:butt;stroke-linejoin:miter;stroke-miterlimit:4;stroke-dasharray:none;stroke-opacity:1"
             id="path2820" />
        </g>
      </g>
      <g
         id="g2839"
         inkscape:highlight-color="#ffffff"
         style="stroke:#ffffff;stroke-opacity:1">
        <path
           d="m 58,200 c 0,12.70255 -10.297451,23 -23,23 -12.702549,0 -23,-10.29745 -23,-23 0,-12.70255 10.297451,-23 23,-23 12.702549,0 23,10.29745 23,23 z"
           transform="matrix(0.839196,0,0,0.839196,16.62814,-161.8392)"
           style="fill:#ffffff;fill-opacity:1;fill-rule:evenodd;stroke:#ffffff;stroke-width:4.46856;stroke-miterlimit:4;stroke-dasharray:none;stroke-dashoffset:0;stroke-opacity:1"
           id="path2317" />
        <path
           d="m -5.698492,218 c 0,10.65993 -8.64158,19.30151 -19.301508,19.30151 -10.659928,0 -19.301508,-8.64158 -19.301508,-19.30151 0,-10.65993 8.64158,-19.30151 19.301508,-19.30151 10.659928,0 19.301508,8.64158 19.301508,19.30151 z"
           style="fill:#ffffff;fill-opacity:1;fill-rule:evenodd;stroke:#ffffff;stroke-width:3.75;stroke-miterlimit:4;stroke-dasharray:none;stroke-dashoffset:0;stroke-opacity:1"
           id="use2325" />
        <path
           d="m 135.30151,218 c 0,10.65993 -8.64158,19.30151 -19.30151,19.30151 -10.65993,0 -19.301508,-8.64158 -19.301508,-19.30151 0,-10.65993 8.641578,-19.30151 19.301508,-19.30151 10.65993,0 19.30151,8.64158 19.30151,19.30151 z"
           style="fill:#ffffff;fill-opacity:1;fill-rule:evenodd;stroke:#ffffff;stroke-width:3.75;stroke-miterlimit:4;stroke-dasharray:none;stroke-dashoffset:0;stroke-opacity:1"
           id="use2327" />
        <path
           d="m 177.30151,86 c 0,10.659929 -8.64158,19.30151 -19.30151,19.30151 -10.65993,0 -19.30151,-8.641581 -19.30151,-19.30151 0,-10.659929 8.64158,-19.301508 19.30151,-19.301508 10.65993,0 19.30151,8.641579 19.30151,19.301508 z"
           style="fill:#ffffff;fill-opacity:1;fill-rule:evenodd;stroke:#ffffff;stroke-width:3.75;stroke-miterlimit:4;stroke-dasharray:none;stroke-dashoffset:0;stroke-opacity:1"
           id="use1880" />
        <path
           d="m -50.698492,85 c 0,10.659929 -8.64158,19.30151 -19.301508,19.30151 -10.659928,0 -19.301508,-8.641581 -19.301508,-19.30151 0,-10.659929 8.64158,-19.301508 19.301508,-19.301508 10.659928,0 19.301508,8.641579 19.301508,19.301508 z"
           style="fill:#ffffff;fill-opacity:1;fill-rule:evenodd;stroke:#ffffff;stroke-width:3.75;stroke-miterlimit:4;stroke-dasharray:none;stroke-dashoffset:0;stroke-opacity:1"
           id="use1882" />
        <path
           d="m 64.301508,-86 c 0,10.659929 -8.64158,19.301508 -19.301508,19.301508 -10.659928,0 -19.301508,-8.641579 -19.301508,-19.301508 0,-10.659929 8.64158,-19.30151 19.301508,-19.30151 10.659928,0 19.301508,8.641581 19.301508,19.30151 z"
           style="fill:#ffffff;fill-opacity:1;fill-rule:evenodd;stroke:#ffffff;stroke-width:3.75;stroke-miterlimit:4;stroke-dasharray:none;stroke-dashoffset:0;stroke-opacity:1"
           id="use1884" />
        <path
           d="m 270.30151,64 c 0,10.659929 -8.64158,19.301508 -19.30151,19.301508 -10.65993,0 -19.30151,-8.641579 -19.30151,-19.301508 0,-10.659929 8.64158,-19.301508 19.30151,-19.301508 10.65993,0 19.30151,8.641579 19.30151,19.301508 z"
           style="fill:#ffffff;fill-opacity:1;fill-rule:evenodd;stroke:#ffffff;stroke-width:3.75;stroke-miterlimit:4;stroke-dasharray:none;stroke-dashoffset:0;stroke-opacity:1"
           id="use1886" />
        <path
           d="m -140.69849,64 c 0,10.659929 -8.64158,19.301508 -19.30151,19.301508 -10.65993,0 -19.30151,-8.641579 -19.30151,-19.301508 0,-10.659929 8.64158,-19.301508 19.30151,-19.301508 10.65993,0 19.30151,8.641579 19.30151,19.301508 z"
           style="fill:#ffffff;fill-opacity:1;fill-rule:evenodd;stroke:#ffffff;stroke-width:3.75;stroke-miterlimit:4;stroke-dasharray:none;stroke-dashoffset:0;stroke-opacity:1"
           id="use1890" />
        <path
           d="m -65.698492,308 c 0,10.65993 -8.64158,19.30151 -19.301508,19.30151 -10.659928,0 -19.30151,-8.64158 -19.30151,-19.30151 0,-10.65993 8.641582,-19.30151 19.30151,-19.30151 10.659928,0 19.301508,8.64158 19.301508,19.30151 z"
           style="fill:#ffffff;fill-opacity:1;fill-rule:evenodd;stroke:#ffffff;stroke-width:3.75;stroke-miterlimit:4;stroke-dasharray:none;stroke-dashoffset:0;stroke-opacity:1"
           id="use1892" />
        <path
           d="m 191.30151,308 c 0,10.65993 -8.64158,19.30151 -19.30151,19.30151 -10.65993,0 -19.30151,-8.64158 -19.30151,-19.30151 0,-10.65993 8.64158,-19.30151 19.30151,-19.30151 10.65993,0 19.30151,8.64158 19.30151,19.30151 z"
           style="fill:#ffffff;fill-opacity:1;fill-rule:evenodd;stroke:#ffffff;stroke-width:3.75;stroke-miterlimit:4;stroke-dasharray:none;stroke-dashoffset:0;stroke-opacity:1"
           id="use1894" />
      </g>
    </g>
  </g>
</svg>
