<?xml version="1.0" encoding="utf-8"?>
<!DOCTYPE svg PUBLIC "-//W3C//DTD SVG 1.1//EN" "http://www.w3.org/Graphics/SVG/1.1/DTD/svg11.dtd">
<svg  version="1.1" id="Layer_1" xmlns="http://www.w3.org/2000/svg" xmlns:xlink="http://www.w3.org/1999/xlink" width="540" height="180" viewBox="0 0 540 180"
	 overflow="visible" enable-background="new 0 0 540 180" xml:space="preserve">
<line fill="none" stroke="#000000" stroke-width="1.5" x1="423" y1="18" x2="477" y2="162"/>
<line fill="none" stroke="#000000" stroke-width="1.5" x1="423" y1="162" x2="477" y2="18"/>
<line fill="none" stroke="#000000" stroke-width="1.5" x1="378" y1="162" x2="378" y2="18"/>
<line fill="none" stroke="#000000" stroke-width="1.5" x1="234" y1="18" x2="234" y2="90"/>
<polyline fill="none" stroke="#000000" stroke-width="1.5" points="279,18 234,90 261,162 "/>
<polyline fill="none" stroke="#000000" stroke-width="1.5" points="207,162 234,90 189,18 "/>
<line fill="none" stroke="#000000" stroke-width="1.5" x1="162" y1="162" x2="162" y2="90"/>
<line fill="none" stroke="#000000" stroke-width="1.5" x1="18" y1="90" x2="522" y2="90"/>
<circle fill="#00FF00" stroke="#000000" cx="90" cy="90" r="9"/>
<circle fill="#00FF00" stroke="#000000" cx="18" cy="90" r="9"/>
<circle fill="#00FF00" stroke="#000000" cx="162" cy="90" r="9"/>
<circle fill="#00FF00" stroke="#000000" cx="234" cy="90" r="9"/>
<circle fill="#00FF00" stroke="#000000" cx="306" cy="90" r="9"/>
<circle fill="#00FF00" stroke="#000000" cx="378" cy="90" r="9"/>
<circle fill="#00FF00" stroke="#000000" cx="450" cy="90" r="9"/>
<circle fill="#00FF00" stroke="#000000" cx="522" cy="90" r="9"/>
<circle fill="#00FF00" stroke="#000000" cx="162" cy="162" r="9"/>
<circle fill="#00FF00" stroke="#000000" cx="207" cy="162" r="9"/>
<circle fill="#00FF00" stroke="#000000" cx="261" cy="162" r="9"/>
<circle fill="#00FF00" stroke="#000000" cx="234" cy="18" r="9"/>
<circle fill="#00FF00" stroke="#000000" cx="189" cy="18" r="9"/>
<circle fill="#00FF00" stroke="#000000" cx="279" cy="18" r="9"/>
<circle fill="#00FF00" stroke="#000000" cx="378" cy="18" r="9"/>
<circle fill="#00FF00" stroke="#000000" cx="378" cy="162" r="9"/>
<circle fill="#00FF00" stroke="#000000" cx="423" cy="162" r="9"/>
<circle fill="#00FF00" stroke="#000000" cx="477" cy="162" r="9"/>
<circle fill="#00FF00" stroke="#000000" cx="423" cy="18" r="9"/>
<circle fill="#00FF00" stroke="#000000" cx="477" cy="18" r="9"/>
<rect fill="none" width="540" height="180"/>
</svg>
