<?xml version="1.0" encoding="UTF-8" standalone="no"?>
<!-- Created with Inkscape (http://www.inkscape.org/) -->

<svg
   version="1.0"
   width="480"
   height="460"
   id="svg2"
   sodipodi:docname="Petersen_graph_3-colors.svg"
   inkscape:version="1.2 (1:1.2.1+202207142221+cd75a1ee6d)"
   inkscape:export-filename="Petersen_graph_3-colors.pdf"
   inkscape:export-xdpi="96"
   inkscape:export-ydpi="96"
   xmlns:inkscape="http://www.inkscape.org/namespaces/inkscape"
   xmlns:sodipodi="http://sodipodi.sourceforge.net/DTD/sodipodi-0.dtd"
   xmlns="http://www.w3.org/2000/svg"
   xmlns:svg="http://www.w3.org/2000/svg">
  <sodipodi:namedview
     id="namedview84"
     pagecolor="#1525bd"
     bordercolor="#666666"
     borderopacity="1.0"
     inkscape:showpageshadow="2"
     inkscape:pageopacity="0"
     inkscape:pagecheckerboard="false"
     inkscape:deskcolor="#d1d1d1"
     showgrid="false"
     inkscape:zoom="1.6478261"
     inkscape:cx="175.07915"
     inkscape:cy="236.97889"
     inkscape:window-width="2359"
     inkscape:window-height="2132"
     inkscape:window-x="0"
     inkscape:window-y="28"
     inkscape:window-maximized="0"
     inkscape:current-layer="svg2" />
  <defs
     id="defs5" />
  <path
     d="M 311.00301,340.08453 239.50625,121.85455 167.92422,340.00012 353.49177,204.60262 123.79076,203.97155 Z"
     style="fill:none;fill-opacity:1;stroke:#ffffff;stroke-width:5;stroke-linecap:square;stroke-linejoin:miter;stroke-miterlimit:4;stroke-opacity:1"
     id="path2807" />
  <path
     d="M 369.65025,430.50197 109.1451,430.3482 28.790825,182.55741 239.63432,29.568041 450.29702,182.80621 Z"
     style="fill:none;fill-opacity:1;stroke:#ffffff;stroke-width:5;stroke-linecap:square;stroke-linejoin:miter;stroke-miterlimit:4;stroke-dasharray:none;stroke-opacity:1"
     id="path2805" />
  <g
     id="g2822"
     style="stroke:#ffffff;stroke-opacity:1"
     transform="translate(194.5,119)">
    <path
       d="m -163,67 94,21"
       transform="translate(0,-2)"
       style="fill:none;fill-opacity:0.75;fill-rule:evenodd;stroke:#ffffff;stroke-width:5;stroke-linecap:butt;stroke-linejoin:miter;stroke-miterlimit:4;stroke-dasharray:none;stroke-opacity:1"
       id="path2812" />
    <path
       d="M 251,65 157,86"
       style="fill:none;fill-opacity:0.75;fill-rule:evenodd;stroke:#ffffff;stroke-width:5;stroke-linecap:butt;stroke-linejoin:miter;stroke-miterlimit:4;stroke-dasharray:none;stroke-opacity:1"
       id="path2814" />
    <path
       d="M 45,-85 V 9"
       transform="translate(0,-2)"
       style="fill:none;fill-opacity:0.75;fill-rule:evenodd;stroke:#ffffff;stroke-width:5;stroke-linecap:butt;stroke-linejoin:miter;stroke-miterlimit:4;stroke-dasharray:none;stroke-opacity:1"
       id="path2816" />
    <path
       d="m -25,221 -61,90"
       transform="translate(0,-2)"
       style="fill:none;fill-opacity:0.75;fill-rule:evenodd;stroke:#ffffff;stroke-width:5;stroke-linecap:butt;stroke-linejoin:miter;stroke-miterlimit:4;stroke-dasharray:none;stroke-opacity:1"
       id="path2818" />
    <path
       d="m 114,219 61,90"
       style="fill:none;fill-opacity:0.75;fill-rule:evenodd;stroke:#ffffff;stroke-width:5;stroke-linecap:butt;stroke-linejoin:miter;stroke-miterlimit:4;stroke-dasharray:none;stroke-opacity:1"
       id="path2820" />
  </g>
  <path
     d="m 259.80151,125 c 0,10.65993 -8.64158,19.30151 -19.30151,19.30151 -10.65993,0 -19.30151,-8.64158 -19.30151,-19.30151 0,-10.65993 8.64158,-19.30151 19.30151,-19.30151 10.65993,0 19.30151,8.64158 19.30151,19.30151 z"
     style="fill:#0000ff;fill-opacity:1;fill-rule:evenodd;stroke:#ffffff;stroke-width:3.75;stroke-miterlimit:4;stroke-dasharray:none;stroke-dashoffset:0;stroke-opacity:1"
     id="path2317" />
  <path
     d="m 188.80151,337 c 0,10.65993 -8.64158,19.30151 -19.30151,19.30151 -10.65993,0 -19.30151,-8.64158 -19.30151,-19.30151 0,-10.65993 8.64158,-19.30151 19.30151,-19.30151 10.65993,0 19.30151,8.64158 19.30151,19.30151 z"
     style="fill:#00ff00;fill-opacity:1;fill-rule:evenodd;stroke:#ffffff;stroke-width:3.75;stroke-miterlimit:4;stroke-dasharray:none;stroke-dashoffset:0;stroke-opacity:1"
     id="use2325" />
  <path
     d="m 329.80151,337 c 0,10.65993 -8.64158,19.30151 -19.30151,19.30151 -10.65993,0 -19.30151,-8.64158 -19.30151,-19.30151 0,-10.65993 8.64158,-19.30151 19.30151,-19.30151 10.65993,0 19.30151,8.64158 19.30151,19.30151 z"
     style="fill:#ff0000;fill-opacity:1;fill-rule:evenodd;stroke:#ffffff;stroke-width:3.75;stroke-miterlimit:4;stroke-dasharray:none;stroke-dashoffset:0;stroke-opacity:1"
     id="use2327" />
  <path
     d="m 371.80151,205 c 0,10.65993 -8.64158,19.30151 -19.30151,19.30151 -10.65993,0 -19.30151,-8.64158 -19.30151,-19.30151 0,-10.65993 8.64158,-19.30151 19.30151,-19.30151 10.65993,0 19.30151,8.64158 19.30151,19.30151 z"
     style="fill:#ff0000;fill-opacity:1;fill-rule:evenodd;stroke:#ffffff;stroke-width:3.75;stroke-miterlimit:4;stroke-dasharray:none;stroke-dashoffset:0;stroke-opacity:1"
     id="use1880" />
  <path
     d="m 143.80151,204 c 0,10.65993 -8.64158,19.30151 -19.30151,19.30151 -10.65993,0 -19.30151,-8.64158 -19.30151,-19.30151 0,-10.65993 8.64158,-19.30151 19.30151,-19.30151 10.65993,0 19.30151,8.64158 19.30151,19.30151 z"
     style="fill:#00ff00;fill-opacity:1;fill-rule:evenodd;stroke:#ffffff;stroke-width:3.75;stroke-miterlimit:4;stroke-dasharray:none;stroke-dashoffset:0;stroke-opacity:1"
     id="use1882" />
  <path
     d="m 258.80151,33 c 0,10.659929 -8.64158,19.301508 -19.30151,19.301508 -10.65993,0 -19.30151,-8.641579 -19.30151,-19.301508 0,-10.659929 8.64158,-19.30151 19.30151,-19.30151 10.65993,0 19.30151,8.641581 19.30151,19.30151 z"
     style="fill:#ff0000;fill-opacity:1;fill-rule:evenodd;stroke:#ffffff;stroke-width:3.75;stroke-miterlimit:4;stroke-dasharray:none;stroke-dashoffset:0;stroke-opacity:1"
     id="use1884" />
  <path
     d="m 464.80151,183 c 0,10.65993 -8.64158,19.30151 -19.30151,19.30151 -10.65993,0 -19.30151,-8.64158 -19.30151,-19.30151 0,-10.65993 8.64158,-19.30151 19.30151,-19.30151 10.65993,0 19.30151,8.64158 19.30151,19.30151 z"
     style="fill:#0000ff;fill-opacity:1;fill-rule:evenodd;stroke:#ffffff;stroke-width:3.75;stroke-miterlimit:4;stroke-dasharray:none;stroke-dashoffset:0;stroke-opacity:1"
     id="use1886" />
  <path
     d="m 53.80151,183 c 0,10.65993 -8.64158,19.30151 -19.30151,19.30151 -10.65993,0 -19.30151,-8.64158 -19.30151,-19.30151 0,-10.65993 8.64158,-19.30151 19.30151,-19.30151 10.65993,0 19.30151,8.64158 19.30151,19.30151 z"
     style="fill:#0000ff;fill-opacity:1;fill-rule:evenodd;stroke:#ffffff;stroke-width:3.75;stroke-miterlimit:4;stroke-dasharray:none;stroke-dashoffset:0;stroke-opacity:1"
     id="use1890" />
  <path
     d="m 128.80151,427 c 0,10.65993 -8.64158,19.30151 -19.30151,19.30151 -10.659928,0 -19.30151,-8.64158 -19.30151,-19.30151 0,-10.65993 8.641582,-19.30151 19.30151,-19.30151 10.65993,0 19.30151,8.64158 19.30151,19.30151 z"
     style="fill:#ff0000;fill-opacity:1;fill-rule:evenodd;stroke:#ffffff;stroke-width:3.75;stroke-miterlimit:4;stroke-dasharray:none;stroke-dashoffset:0;stroke-opacity:1"
     id="use1892" />
  <path
     d="m 385.80151,427 c 0,10.65993 -8.64158,19.30151 -19.30151,19.30151 -10.65993,0 -19.30151,-8.64158 -19.30151,-19.30151 0,-10.65993 8.64158,-19.30151 19.30151,-19.30151 10.65993,0 19.30151,8.64158 19.30151,19.30151 z"
     style="fill:#00ff00;fill-opacity:1;fill-rule:evenodd;stroke:#ffffff;stroke-width:3.75;stroke-miterlimit:4;stroke-dasharray:none;stroke-dashoffset:0;stroke-opacity:1"
     id="use1894" />
</svg>
